<svg width="21" height="20" viewBox="0 0 21 20" fill="none" xmlns="http://www.w3.org/2000/svg">
<path d="M9.60286 0.85958C9.90271 -0.0606967 11.2046 -0.0606959 11.5045 0.859581L13.2556 6.23398C13.3897 6.64561 13.7734 6.92418 14.2064 6.92418H19.8671C20.8365 6.92418 21.2388 8.16521 20.4538 8.73398L15.879 12.0486C15.5275 12.3033 15.3804 12.7555 15.5149 13.1682L17.2635 18.5349C17.5635 19.4557 16.5102 20.2227 15.7259 19.6544L11.1404 16.3321C10.7903 16.0784 10.317 16.0784 9.96695 16.3321L5.3814 19.6544C4.59714 20.2227 3.54385 19.4557 3.84387 18.5348L5.59245 13.1682C5.7269 12.7555 5.57982 12.3033 5.22836 12.0486L0.653487 8.73398C-0.131519 8.16521 0.270811 6.92418 1.24021 6.92418H6.90096C7.33389 6.92418 7.71765 6.64561 7.85177 6.23398L9.60286 0.85958Z" fill="#E5E5E5"/>
</svg>
