<svg width="22" height="20" viewBox="0 0 22 20" fill="none" xmlns="http://www.w3.org/2000/svg">
<path d="M10.2142 0.85958C10.514 -0.0606967 11.816 -0.0606959 12.1158 0.859581L13.8669 6.23398C14.001 6.64561 14.3848 6.92418 14.8177 6.92418H20.4785C21.4478 6.92418 21.8502 8.16521 21.0652 8.73398L16.4903 12.0486C16.1388 12.3033 15.9918 12.7555 16.1262 13.1682L17.8748 18.5349C18.1748 19.4557 17.1215 20.2227 16.3373 19.6544L11.7517 16.3321C11.4017 16.0784 10.9283 16.0784 10.5783 16.3321L5.99273 19.6544C5.20847 20.2227 4.15518 19.4557 4.4552 18.5348L6.20377 13.1682C6.33823 12.7555 6.19115 12.3033 5.83969 12.0486L1.26482 8.73398C0.479809 8.16521 0.882139 6.92418 1.85153 6.92418H7.51229C7.94522 6.92418 8.32898 6.64561 8.46309 6.23398L10.2142 0.85958Z" fill="#070707"/>
</svg>
